<?xml version="1.0" encoding="UTF-8" standalone="no"?>
<!-- Created with Inkscape (http://www.inkscape.org/) -->

<svg
   xmlns:dc="http://purl.org/dc/elements/1.1/"
   xmlns:cc="http://creativecommons.org/ns#"
   xmlns:rdf="http://www.w3.org/1999/02/22-rdf-syntax-ns#"
   xmlns:svg="http://www.w3.org/2000/svg"
   xmlns="http://www.w3.org/2000/svg"
   xmlns:sodipodi="http://sodipodi.sourceforge.net/DTD/sodipodi-0.dtd"
   xmlns:inkscape="http://www.inkscape.org/namespaces/inkscape"
   width="105.43713mm"
   height="137.37036mm"
   viewBox="0 0 373.59614 486.74537"
   id="svg2"
   version="1.1"
   inkscape:version="0.91 r13725"
   sodipodi:docname="Rcroix.svg">
  <defs
     id="defs4" />
  <sodipodi:namedview
     id="base"
     pagecolor="#ffffff"
     bordercolor="#666666"
     borderopacity="1.0"
     inkscape:pageopacity="0.0"
     inkscape:pageshadow="2"
     inkscape:zoom="0.35"
     inkscape:cx="341.89113"
     inkscape:cy="265.17672"
     inkscape:document-units="px"
     inkscape:current-layer="layer1"
     showgrid="false"
     fit-margin-top="0"
     fit-margin-left="0"
     fit-margin-right="0"
     fit-margin-bottom="0"
     inkscape:window-width="895"
     inkscape:window-height="590"
     inkscape:window-x="290"
     inkscape:window-y="1333"
     inkscape:window-maximized="0" />
  <metadata
     id="metadata7">
    <rdf:RDF>
      <cc:Work
         rdf:about="">
        <dc:format>image/svg+xml</dc:format>
        <dc:type
           rdf:resource="http://purl.org/dc/dcmitype/StillImage" />
        <dc:title></dc:title>
      </cc:Work>
    </rdf:RDF>
  </metadata>
  <g
     inkscape:label="Layer 1"
     inkscape:groupmode="layer"
     id="layer1"
     transform="translate(-185.24916,-282.8084)">
    <path
       style="fill:#ff0000"
       d="m 483.82152,768.60618 c -13.84955,-3.79771 -34.32025,-18.74603 -56.80057,-41.47749 -19.33269,-19.54867 -32.66974,-36.71539 -48.22266,-62.06958 -13.26114,-21.61813 -22.42269,-32.27315 -27.74955,-32.27315 -4.46323,0 -10.49945,4.58184 -18.11462,13.75 -3.71177,4.46875 -8.99732,10.81405 -11.74566,14.10066 -2.74832,3.28661 -6.35721,6.86694 -8.01974,7.95627 -2.76268,1.81018 -3.28787,1.80689 -6.1038,-0.0381 -4.34505,-2.84699 -4.80244,-2.57981 -3.89197,2.27346 0.71035,3.78648 0.26441,4.83303 -3.78464,8.88208 -5.42414,5.42415 -19.8301,12.63576 -27.55548,13.79425 -3.42103,0.51301 -6.91341,0.22315 -9.31956,-0.77352 -3.20829,-1.32891 -4.03214,-1.30097 -4.95423,0.16799 -0.60831,0.96909 -0.79217,2.77008 -0.40859,4.00219 1.48759,4.7783 -0.99035,12.25524 -5.96725,18.0056 -4.68986,5.41871 -4.92609,6.07541 -4.16806,11.58697 0.60768,4.41834 0.3449,6.22339 -1.0779,7.4042 -2.70247,2.24285 -6.09933,0.0714 -11.05664,-7.06822 l -4.10965,-5.9188 -0.65904,10.10691 c -0.74309,11.39609 -2.75917,15.58293 -9.04023,18.77406 -2.2279,1.13191 -7.66586,4.61804 -12.08436,7.74697 -9.95429,7.04907 -16.38673,7.85291 -20.39652,2.54887 -3.54056,-4.68336 -4.53011,-19.0773 -1.6892,-24.57102 1.1322,-2.18944 2.51632,-3.98079 3.07581,-3.98079 2.39472,0 3.67288,-5.86909 2.35414,-10.80976 -0.72906,-2.73147 -0.9426,-6.49218 -0.47452,-8.35716 0.47429,-1.88972 7.47422,-10.31575 15.81171,-19.03306 15.91501,-16.64 19.20091,-21.33906 18.07726,-25.85173 -1.38748,-5.57228 10.76436,-22.69265 50.96529,-71.80348 42.3094,-51.68661 39.68466,-48.11797 39.68466,-53.95591 0,-3.00017 -1.77328,-9.48184 -4.23691,-15.48676 -6.12962,-14.94041 -13.80535,-38.10628 -29.51468,-89.07714 -7.628,-24.75 -18.5779,-59.34375 -24.33312,-76.875 C 246.65866,324.7905 244.5295,316.05427 245.61,308.17116 c 1.54373,-11.26273 10.75706,-23.31296 19.00803,-24.86086 15.33214,-2.87632 43.78113,7.04013 53.82849,18.76299 11.96547,13.96082 32.13479,57.57984 44.54633,96.3377 5.50806,17.20021 7.93615,28.76475 9.67561,46.08315 1.50068,14.94109 3.9755,22.80536 7.53188,23.93411 5.18733,1.6464 13.59941,-5.97625 39.33346,-35.64226 7.45474,-8.59375 24.56401,-26.63226 38.0206,-40.08559 26.55751,-26.55105 32.03165,-30.42001 45.09155,-31.8694 9.16376,-1.017 23.46835,2.05659 33.69456,7.23985 14.03788,7.11524 21.09163,19.99235 22.24654,40.61261 0.90909,16.23127 0.31072,17.26518 -17.07014,29.49502 -16.23055,11.42045 -37.6822,31.62252 -60.63985,57.10751 -25.64834,28.47187 -65.73111,74.87819 -65.73111,76.10096 0,1.19413 27.9165,64.99587 40.53866,92.64904 10.22209,22.39499 19.75071,40.11466 28.90366,53.75 8.74143,13.02226 11.80768,20.2257 11.80768,27.73934 0,6.12356 -1.58785,9.19225 -5.96893,11.53556 l -3.40607,1.82181 4.07004,1.45155 c 2.62928,0.93773 4.34175,2.53416 4.83761,4.50986 0.42217,1.68207 0.55826,3.26764 0.30241,3.52349 -1.47875,1.47875 -7.46701,1.59389 -12.40949,0.23861 z"
       id="path3347"
       inkscape:connector-curvature="0" />
  </g>
</svg>
